<mxfile host="app.diagrams.net" modified="2024-06-05T04:46:42.747Z" agent="Mozilla/5.0 (Macintosh; Intel Mac OS X 10_15_7) AppleWebKit/605.1.15 (KHTML, like Gecko) Version/17.5 Safari/605.1.15" version="24.4.13" etag="B_6N_IEl7fZjKb3QozCW" type="github">
  <diagram name="Page-1" id="g1WAVAjbO5atQVQJlWGi">
    <mxGraphModel>
      <root>
        <mxCell id="0" />
        <mxCell id="1" parent="0" />
      </root>
    </mxGraphModel>
  </diagram>
</mxfile>
